# xmcd
#
# Track frame offsets:
#	150
#	25497
#	48120
#	73436
#	89951
#	108258
#	123462
#	146965
#	159857
#	189772
#	209511
#	222273
#
# Disc length: 3205 seconds
#
# Revision: 2
# Processed by: cddbd v1.5.2PL0 Copyright (c) Steve Scherf et al.
# Submitted via: audiograbber 1.83.01
#
DISCID=b80c830c
DTITLE=Footloose - Trip to the Moon
DYEAR=2005
DGENRE=Contra
TTITLE0=Bundle and Go - Palamara - Paddy Fahy's Reel
TTITLE1=Carpathian Tune - Lowdown Hoedown - Beth Cohen's
TTITLE2=Miller's Maggot - The Caves of Kesh - Forgotten Memories
TTITLE3=A Bicada do Tico Tico
TTITLE4=Maid Behind the Barrel - Copper Serpent
TTITLE5=Le Vin
TTITLE6=Trip to the Moon - Swing the Devil Below - Dr. Who Returns
TTITLE7=Ragtime Annie
TTITLE8=Johnny Court the Widow - Liza Jane - Sandy Boys
TTITLE9=Becky's Lesnoto #2 - Cocek
TTITLE10=Fried's Triumph
TTITLE11=Celia's Last Waltz
EXTD=
EXTT0=
EXTT1=
EXTT2=
EXTT3=
EXTT4=
EXTT5=
EXTT6=
EXTT7=
EXTT8=
EXTT9=Alternate spelling: Chochek (Cs are C-haceks)
EXTT10=
EXTT11=
PLAYORDER=
